<?xml version="1.0" encoding="UTF-8" standalone="no"?>
<svg
   viewBox="0 0 64 64"
   version="1.1"
   id="svg5"
   sodipodi:docname="favicon.svg"
   inkscape:version="1.4.3 (0d15f75, 2025-12-25)"
   xmlns:inkscape="http://www.inkscape.org/namespaces/inkscape"
   xmlns:sodipodi="http://sodipodi.sourceforge.net/DTD/sodipodi-0.dtd"
   xmlns:xlink="http://www.w3.org/1999/xlink"
   xmlns="http://www.w3.org/2000/svg"
   xmlns:svg="http://www.w3.org/2000/svg">
  <defs
     id="defs5">
    <linearGradient
       id="swatch18"
       inkscape:swatch="solid">
      <stop
         style="stop-color:#ffffff;stop-opacity:1;"
         offset="0"
         id="stop18" />
    </linearGradient>
    <linearGradient
       id="swatch11"
       inkscape:swatch="solid">
      <stop
         style="stop-color:#1f2328;stop-opacity:1;"
         offset="0"
         id="stop11" />
    </linearGradient>
    <linearGradient
       inkscape:collect="always"
       xlink:href="#swatch11"
       id="linearGradient11"
       x1="16"
       y1="33.5"
       x2="49"
       y2="33.5"
       gradientUnits="userSpaceOnUse" />
    <linearGradient
       inkscape:collect="always"
       xlink:href="#swatch18"
       id="linearGradient18"
       x1="16.5"
       y1="15"
       x2="29.5"
       y2="15"
       gradientUnits="userSpaceOnUse" />
    <linearGradient
       inkscape:collect="always"
       xlink:href="#swatch18"
       id="linearGradient19"
       x1="35.5"
       y1="15"
       x2="48.5"
       y2="15"
       gradientUnits="userSpaceOnUse" />
  </defs>
  <sodipodi:namedview
     id="namedview5"
     pagecolor="#ffffff"
     bordercolor="#000000"
     borderopacity="0.25"
     inkscape:showpageshadow="2"
     inkscape:pageopacity="0.0"
     inkscape:pagecheckerboard="0"
     inkscape:deskcolor="#d1d1d1"
     inkscape:zoom="6.8164855"
     inkscape:cx="16.2107"
     inkscape:cy="30.220852"
     inkscape:window-width="1400"
     inkscape:window-height="883"
     inkscape:window-x="35"
     inkscape:window-y="39"
     inkscape:window-maximized="0"
     inkscape:current-layer="g7" />
  <!-- ears poke out above the page; the page covers their lower halves -->
  <!-- page with folded corner -->
  <!-- panda face -->
  <g
     id="g6"
     transform="matrix(-1.5524973,0,0,-1.5524973,81.679909,34.461399)">
    <circle
       cx="23"
       cy="15"
       r="6.5"
       fill="#1f2328"
       id="circle1"
       style="stroke:url(#linearGradient18);stroke-width:0.6441235;stroke-dasharray:none;paint-order:stroke fill markers" />
    <circle
       cx="42"
       cy="15"
       r="6.5"
       fill="#1f2328"
       id="circle2"
       style="stroke:url(#linearGradient19);stroke-width:0.6441235;stroke-dasharray:none;paint-order:stroke fill markers" />
  </g>
  <g
     id="g7"
     transform="matrix(0,1.4903819,-1.5524973,0,84.008658,-10.11142)">
    <path
       d="m 19,14 h 19 l 11,11 v 25 a 3,3 0 0 1 -3,3 H 19 A 3,3 0 0 1 16,50 V 17 a 3,3 0 0 1 3,-3 z"
       fill="#ffffff"
       id="path2"
       style="stroke:url(#linearGradient11);stroke-width:0.65740922;stroke-dasharray:none;stroke-linecap:round;paint-order:stroke fill markers" />
    <path
       d="M 38,14 49,25 H 38 Z"
       fill="#bcd5f5"
       id="path3" />
  </g>
  <g
     id="g8"
     transform="matrix(1.5524973,0,0,1.5524973,-19.205182,-15.459388)">
    <ellipse
       cx="32.5"
       cy="39"
       rx="3.2"
       ry="2.4000001"
       fill="#1f2328"
       id="ellipse5" />
    <path
       d="m 32.5,39.6 v 2.5 m 0,0 c -1.4,1.6 -3.8,1.7 -5,0.4 m 5,-0.4 c 1.4,1.6 3.8,1.7 5,0.4"
       stroke="#1f2328"
       stroke-width="1.6"
       fill="none"
       stroke-linecap="round"
       id="path5" />
    <g
       id="g5-1"
       transform="matrix(-1,0,0,1,64.123878,1.1536276)">
      <ellipse
         cx="35.585587"
         cy="-14.345035"
         rx="4.9082456"
         ry="6.0886292"
         transform="matrix(0.2920508,0.95640281,-0.94511042,0.32675111,0,0)"
         fill="#1f2328"
         id="ellipse3-4"
         style="stroke-width:1.04056" />
      <circle
         cx="25.495571"
         cy="28.594687"
         r="1.7"
         fill="#ffffff"
         id="circle4-7" />
    </g>
    <g
       id="g5"
       transform="translate(0.84104799,1.1536276)">
      <ellipse
         cx="35.585587"
         cy="-14.345035"
         rx="4.9082456"
         ry="6.0886292"
         transform="matrix(0.2920508,0.95640281,-0.94511042,0.32675111,0,0)"
         fill="#1f2328"
         id="ellipse3"
         style="stroke-width:1.04056" />
      <circle
         cx="25.495571"
         cy="28.594687"
         r="1.7"
         fill="#ffffff"
         id="circle4" />
    </g>
  </g>
</svg>
